{
	"patcher" : 	{
		"fileversion" : 1,
		"rect" : [ 0.0, 44.0, 1276.0, 730.0 ],
		"bglocked" : 0,
		"defrect" : [ 0.0, 44.0, 1276.0, 730.0 ],
		"openrect" : [ 0.0, 0.0, 0.0, 0.0 ],
		"openinpresentation" : 0,
		"default_fontsize" : 12.0,
		"default_fontface" : 0,
		"default_fontname" : "Arial",
		"gridonopen" : 0,
		"gridsize" : [ 15.0, 15.0 ],
		"gridsnaponopen" : 0,
		"toolbarvisible" : 1,
		"boxanimatetime" : 200,
		"imprint" : 0,
		"enablehscroll" : 1,
		"enablevscroll" : 1,
		"devicewidth" : 0.0,
		"boxes" : [ 			{
				"box" : 				{
					"maxclass" : "comment",
					"text" : "Start/Stop",
					"fontsize" : 30.0,
					"numinlets" : 1,
					"patching_rect" : [ 210.0, 135.0, 149.0, 41.0 ],
					"id" : "obj-131",
					"numoutlets" : 0,
					"fontname" : "Arial"
				}

			}
, 			{
				"box" : 				{
					"maxclass" : "comment",
					"text" : "alphamask",
					"fontsize" : 48.0,
					"numinlets" : 1,
					"patching_rect" : [ 930.0, 105.0, 247.0, 62.0 ],
					"id" : "obj-130",
					"numoutlets" : 0,
					"fontname" : "Arial"
				}

			}
, 			{
				"box" : 				{
					"maxclass" : "newobj",
					"text" : "print left",
					"fontsize" : 12.0,
					"numinlets" : 1,
					"patching_rect" : [ 1575.0, 285.0, 53.0, 20.0 ],
					"id" : "obj-128",
					"numoutlets" : 0,
					"fontname" : "Arial"
				}

			}
, 			{
				"box" : 				{
					"maxclass" : "newobj",
					"text" : "print right",
					"fontsize" : 12.0,
					"numinlets" : 1,
					"patching_rect" : [ 1410.0, 285.0, 61.0, 20.0 ],
					"id" : "obj-127",
					"numoutlets" : 0,
					"fontname" : "Arial"
				}

			}
, 			{
				"box" : 				{
					"maxclass" : "newobj",
					"text" : "print front",
					"fontsize" : 12.0,
					"numinlets" : 1,
					"patching_rect" : [ 1230.0, 285.0, 61.0, 20.0 ],
					"id" : "obj-126",
					"numoutlets" : 0,
					"fontname" : "Arial"
				}

			}
, 			{
				"box" : 				{
					"maxclass" : "comment",
					"text" : "Judge",
					"fontsize" : 48.0,
					"numinlets" : 1,
					"patching_rect" : [ 1560.0, 165.0, 143.0, 62.0 ],
					"id" : "obj-125",
					"numoutlets" : 0,
					"fontname" : "Arial"
				}

			}
, 			{
				"box" : 				{
					"maxclass" : "message",
					"text" : "clear, moveto 100 200, write left, bang",
					"linecount" : 2,
					"fontsize" : 11.595187,
					"numinlets" : 2,
					"patching_rect" : [ 1530.0, 345.0, 129.0, 31.0 ],
					"id" : "obj-123",
					"numoutlets" : 1,
					"outlettype" : [ "" ],
					"fontname" : "Arial"
				}

			}
, 			{
				"box" : 				{
					"maxclass" : "message",
					"text" : "clear, moveto 100 200, write right, bang",
					"linecount" : 2,
					"fontsize" : 11.595187,
					"numinlets" : 2,
					"patching_rect" : [ 1380.0, 345.0, 129.0, 31.0 ],
					"id" : "obj-122",
					"numoutlets" : 1,
					"outlettype" : [ "" ],
					"fontname" : "Arial"
				}

			}
, 			{
				"box" : 				{
					"maxclass" : "newobj",
					"text" : "if $i1 == 1 then bang",
					"fontsize" : 12.0,
					"numinlets" : 1,
					"patching_rect" : [ 1530.0, 315.0, 120.0, 20.0 ],
					"id" : "obj-121",
					"numoutlets" : 1,
					"outlettype" : [ "" ],
					"fontname" : "Arial"
				}

			}
, 			{
				"box" : 				{
					"maxclass" : "newobj",
					"text" : "if $i1 == 1 then bang",
					"fontsize" : 12.0,
					"numinlets" : 1,
					"patching_rect" : [ 1380.0, 315.0, 120.0, 20.0 ],
					"id" : "obj-120",
					"numoutlets" : 1,
					"outlettype" : [ "" ],
					"fontname" : "Arial"
				}

			}
, 			{
				"box" : 				{
					"maxclass" : "newobj",
					"text" : "if $i1 == 1 then left",
					"fontsize" : 12.0,
					"numinlets" : 1,
					"patching_rect" : [ 1575.0, 255.0, 109.0, 20.0 ],
					"id" : "obj-118",
					"numoutlets" : 1,
					"outlettype" : [ "" ],
					"fontname" : "Arial"
				}

			}
, 			{
				"box" : 				{
					"maxclass" : "newobj",
					"text" : "if $i1 == 1 then right",
					"fontsize" : 12.0,
					"numinlets" : 1,
					"patching_rect" : [ 1410.0, 255.0, 117.0, 20.0 ],
					"id" : "obj-117",
					"numoutlets" : 1,
					"outlettype" : [ "" ],
					"fontname" : "Arial"
				}

			}
, 			{
				"box" : 				{
					"maxclass" : "newobj",
					"text" : "if $i1 == 1 then front",
					"fontsize" : 12.0,
					"numinlets" : 1,
					"patching_rect" : [ 1230.0, 255.0, 117.0, 20.0 ],
					"id" : "obj-116",
					"numoutlets" : 1,
					"outlettype" : [ "" ],
					"fontname" : "Arial"
				}

			}
, 			{
				"box" : 				{
					"maxclass" : "newobj",
					"text" : "r left",
					"fontsize" : 12.0,
					"numinlets" : 0,
					"patching_rect" : [ 1530.0, 210.0, 34.0, 20.0 ],
					"id" : "obj-107",
					"numoutlets" : 1,
					"outlettype" : [ "" ],
					"fontname" : "Arial"
				}

			}
, 			{
				"box" : 				{
					"maxclass" : "newobj",
					"text" : "r right",
					"fontsize" : 12.0,
					"numinlets" : 0,
					"patching_rect" : [ 1380.0, 210.0, 41.0, 20.0 ],
					"id" : "obj-106",
					"numoutlets" : 1,
					"outlettype" : [ "" ],
					"fontname" : "Arial"
				}

			}
, 			{
				"box" : 				{
					"maxclass" : "newobj",
					"text" : "r front",
					"fontsize" : 12.0,
					"numinlets" : 0,
					"patching_rect" : [ 1215.0, 210.0, 42.0, 20.0 ],
					"id" : "obj-105",
					"numoutlets" : 1,
					"outlettype" : [ "" ],
					"fontname" : "Arial"
				}

			}
, 			{
				"box" : 				{
					"maxclass" : "newobj",
					"text" : "s left",
					"fontsize" : 12.0,
					"numinlets" : 1,
					"patching_rect" : [ 1275.0, 780.0, 36.0, 20.0 ],
					"id" : "obj-103",
					"numoutlets" : 0,
					"fontname" : "Arial"
				}

			}
, 			{
				"box" : 				{
					"maxclass" : "newobj",
					"text" : "if $i1 > 0 then 1",
					"fontsize" : 12.0,
					"numinlets" : 1,
					"patching_rect" : [ 1275.0, 750.0, 93.0, 20.0 ],
					"id" : "obj-104",
					"numoutlets" : 1,
					"outlettype" : [ "" ],
					"fontname" : "Arial"
				}

			}
, 			{
				"box" : 				{
					"maxclass" : "newobj",
					"text" : "s right",
					"fontsize" : 12.0,
					"numinlets" : 1,
					"patching_rect" : [ 735.0, 720.0, 43.0, 20.0 ],
					"id" : "obj-101",
					"numoutlets" : 0,
					"fontname" : "Arial"
				}

			}
, 			{
				"box" : 				{
					"maxclass" : "newobj",
					"text" : "if $i1 > 0 then 1",
					"fontsize" : 12.0,
					"numinlets" : 1,
					"patching_rect" : [ 735.0, 690.0, 93.0, 20.0 ],
					"id" : "obj-102",
					"numoutlets" : 1,
					"outlettype" : [ "" ],
					"fontname" : "Arial"
				}

			}
, 			{
				"box" : 				{
					"maxclass" : "newobj",
					"text" : "s front",
					"fontsize" : 12.0,
					"numinlets" : 1,
					"patching_rect" : [ 135.0, 705.0, 44.0, 20.0 ],
					"id" : "obj-96",
					"numoutlets" : 0,
					"fontname" : "Arial"
				}

			}
, 			{
				"box" : 				{
					"maxclass" : "newobj",
					"text" : "if $i1 > 0 then 1",
					"fontsize" : 12.0,
					"numinlets" : 1,
					"patching_rect" : [ 135.0, 675.0, 93.0, 20.0 ],
					"id" : "obj-94",
					"numoutlets" : 1,
					"outlettype" : [ "" ],
					"fontname" : "Arial"
				}

			}
, 			{
				"box" : 				{
					"maxclass" : "comment",
					"text" : "Left",
					"fontsize" : 48.0,
					"numinlets" : 1,
					"patching_rect" : [ 1560.0, 510.0, 128.0, 62.0 ],
					"id" : "obj-82",
					"numoutlets" : 0,
					"fontname" : "Arial"
				}

			}
, 			{
				"box" : 				{
					"maxclass" : "comment",
					"text" : "Right",
					"fontsize" : 48.0,
					"numinlets" : 1,
					"patching_rect" : [ 990.0, 510.0, 128.0, 62.0 ],
					"id" : "obj-76",
					"numoutlets" : 0,
					"fontname" : "Arial"
				}

			}
, 			{
				"box" : 				{
					"maxclass" : "comment",
					"text" : "Front",
					"fontsize" : 48.0,
					"numinlets" : 1,
					"patching_rect" : [ 435.0, 510.0, 128.0, 62.0 ],
					"id" : "obj-67",
					"numoutlets" : 0,
					"fontname" : "Arial"
				}

			}
, 			{
				"box" : 				{
					"maxclass" : "newobj",
					"text" : "r metro",
					"fontsize" : 12.0,
					"numinlets" : 0,
					"patching_rect" : [ 1335.0, 600.0, 49.0, 20.0 ],
					"id" : "obj-57",
					"numoutlets" : 1,
					"outlettype" : [ "" ],
					"fontname" : "Arial"
				}

			}
, 			{
				"box" : 				{
					"maxclass" : "number",
					"fontsize" : 12.0,
					"numinlets" : 1,
					"patching_rect" : [ 1275.0, 720.0, 50.0, 20.0 ],
					"id" : "obj-56",
					"numoutlets" : 2,
					"outlettype" : [ "int", "bang" ],
					"fontname" : "Arial"
				}

			}
, 			{
				"box" : 				{
					"maxclass" : "number",
					"fontsize" : 12.0,
					"numinlets" : 1,
					"patching_rect" : [ 1650.0, 765.0, 50.0, 20.0 ],
					"id" : "obj-46",
					"numoutlets" : 2,
					"outlettype" : [ "int", "bang" ],
					"fontname" : "Arial"
				}

			}
, 			{
				"box" : 				{
					"maxclass" : "number",
					"fontsize" : 12.0,
					"numinlets" : 1,
					"patching_rect" : [ 1590.0, 765.0, 50.0, 20.0 ],
					"id" : "obj-47",
					"numoutlets" : 2,
					"outlettype" : [ "int", "bang" ],
					"fontname" : "Arial"
				}

			}
, 			{
				"box" : 				{
					"maxclass" : "number",
					"fontsize" : 12.0,
					"numinlets" : 1,
					"patching_rect" : [ 1530.0, 765.0, 50.0, 20.0 ],
					"id" : "obj-52",
					"numoutlets" : 2,
					"outlettype" : [ "int", "bang" ],
					"fontname" : "Arial"
				}

			}
, 			{
				"box" : 				{
					"maxclass" : "number",
					"fontsize" : 12.0,
					"numinlets" : 1,
					"patching_rect" : [ 1470.0, 765.0, 50.0, 20.0 ],
					"id" : "obj-53",
					"numoutlets" : 2,
					"outlettype" : [ "int", "bang" ],
					"fontname" : "Arial"
				}

			}
, 			{
				"box" : 				{
					"maxclass" : "newobj",
					"text" : "unpack 0 0 0 0",
					"fontsize" : 12.0,
					"numinlets" : 1,
					"patching_rect" : [ 1470.0, 720.0, 200.0, 20.0 ],
					"id" : "obj-55",
					"numoutlets" : 4,
					"outlettype" : [ "int", "int", "int", "int" ],
					"fontname" : "Arial"
				}

			}
, 			{
				"box" : 				{
					"maxclass" : "number",
					"fontsize" : 12.0,
					"numinlets" : 1,
					"patching_rect" : [ 1080.0, 750.0, 50.0, 20.0 ],
					"id" : "obj-37",
					"numoutlets" : 2,
					"outlettype" : [ "int", "bang" ],
					"fontname" : "Arial"
				}

			}
, 			{
				"box" : 				{
					"maxclass" : "number",
					"fontsize" : 12.0,
					"numinlets" : 1,
					"patching_rect" : [ 1020.0, 750.0, 50.0, 20.0 ],
					"id" : "obj-38",
					"numoutlets" : 2,
					"outlettype" : [ "int", "bang" ],
					"fontname" : "Arial"
				}

			}
, 			{
				"box" : 				{
					"maxclass" : "number",
					"fontsize" : 12.0,
					"numinlets" : 1,
					"patching_rect" : [ 960.0, 750.0, 50.0, 20.0 ],
					"id" : "obj-39",
					"numoutlets" : 2,
					"outlettype" : [ "int", "bang" ],
					"fontname" : "Arial"
				}

			}
, 			{
				"box" : 				{
					"maxclass" : "number",
					"fontsize" : 12.0,
					"numinlets" : 1,
					"patching_rect" : [ 900.0, 750.0, 50.0, 20.0 ],
					"id" : "obj-41",
					"numoutlets" : 2,
					"outlettype" : [ "int", "bang" ],
					"fontname" : "Arial"
				}

			}
, 			{
				"box" : 				{
					"maxclass" : "newobj",
					"text" : "unpack 0 0 0 0",
					"fontsize" : 12.0,
					"numinlets" : 1,
					"patching_rect" : [ 900.0, 705.0, 200.0, 20.0 ],
					"id" : "obj-45",
					"numoutlets" : 4,
					"outlettype" : [ "int", "int", "int", "int" ],
					"fontname" : "Arial"
				}

			}
, 			{
				"box" : 				{
					"maxclass" : "newobj",
					"text" : "r metro",
					"fontsize" : 12.0,
					"numinlets" : 0,
					"patching_rect" : [ 765.0, 525.0, 49.0, 20.0 ],
					"id" : "obj-36",
					"numoutlets" : 1,
					"outlettype" : [ "" ],
					"fontname" : "Arial"
				}

			}
, 			{
				"box" : 				{
					"maxclass" : "number",
					"fontsize" : 12.0,
					"numinlets" : 1,
					"patching_rect" : [ 735.0, 660.0, 50.0, 20.0 ],
					"id" : "obj-35",
					"numoutlets" : 2,
					"outlettype" : [ "int", "bang" ],
					"fontname" : "Arial"
				}

			}
, 			{
				"box" : 				{
					"maxclass" : "newobj",
					"text" : "r grabdata",
					"fontsize" : 12.0,
					"numinlets" : 0,
					"patching_rect" : [ 615.0, 240.0, 65.0, 20.0 ],
					"id" : "obj-34",
					"numoutlets" : 1,
					"outlettype" : [ "" ],
					"fontname" : "Arial"
				}

			}
, 			{
				"box" : 				{
					"maxclass" : "newobj",
					"text" : "r grabdata",
					"fontsize" : 12.0,
					"numinlets" : 0,
					"patching_rect" : [ 525.0, 180.0, 65.0, 20.0 ],
					"id" : "obj-32",
					"numoutlets" : 1,
					"outlettype" : [ "" ],
					"fontname" : "Arial"
				}

			}
, 			{
				"box" : 				{
					"maxclass" : "newobj",
					"text" : "s grabdata",
					"fontsize" : 12.0,
					"numinlets" : 1,
					"patching_rect" : [ 150.0, 300.0, 67.0, 20.0 ],
					"id" : "obj-30",
					"numoutlets" : 0,
					"fontname" : "Arial"
				}

			}
, 			{
				"box" : 				{
					"maxclass" : "number",
					"fontsize" : 12.0,
					"numinlets" : 1,
					"patching_rect" : [ 135.0, 645.0, 50.0, 20.0 ],
					"id" : "obj-28",
					"numoutlets" : 2,
					"outlettype" : [ "int", "bang" ],
					"fontname" : "Arial"
				}

			}
, 			{
				"box" : 				{
					"maxclass" : "newobj",
					"text" : "r metro",
					"fontsize" : 12.0,
					"numinlets" : 0,
					"patching_rect" : [ 165.0, 525.0, 49.0, 20.0 ],
					"id" : "obj-20",
					"numoutlets" : 1,
					"outlettype" : [ "" ],
					"fontname" : "Arial"
				}

			}
, 			{
				"box" : 				{
					"maxclass" : "newobj",
					"text" : "s metro",
					"fontsize" : 12.0,
					"numinlets" : 1,
					"patching_rect" : [ 150.0, 225.0, 51.0, 20.0 ],
					"id" : "obj-19",
					"numoutlets" : 0,
					"fontname" : "Arial"
				}

			}
, 			{
				"box" : 				{
					"maxclass" : "newobj",
					"text" : "r data",
					"fontsize" : 12.0,
					"numinlets" : 0,
					"patching_rect" : [ 795.0, 795.0, 41.0, 20.0 ],
					"id" : "obj-7",
					"numoutlets" : 1,
					"outlettype" : [ "" ],
					"fontname" : "Arial"
				}

			}
, 			{
				"box" : 				{
					"maxclass" : "newobj",
					"text" : "r data",
					"fontsize" : 12.0,
					"numinlets" : 0,
					"patching_rect" : [ 690.0, 540.0, 41.0, 20.0 ],
					"id" : "obj-6",
					"numoutlets" : 1,
					"outlettype" : [ "" ],
					"fontname" : "Arial"
				}

			}
, 			{
				"box" : 				{
					"maxclass" : "newobj",
					"text" : "r data",
					"fontsize" : 12.0,
					"numinlets" : 0,
					"patching_rect" : [ 1230.0, 540.0, 41.0, 20.0 ],
					"id" : "obj-5",
					"numoutlets" : 1,
					"outlettype" : [ "" ],
					"fontname" : "Arial"
				}

			}
, 			{
				"box" : 				{
					"maxclass" : "newobj",
					"text" : "r data",
					"fontsize" : 12.0,
					"numinlets" : 0,
					"patching_rect" : [ 225.0, 765.0, 41.0, 20.0 ],
					"id" : "obj-1",
					"numoutlets" : 1,
					"outlettype" : [ "" ],
					"fontname" : "Arial"
				}

			}
, 			{
				"box" : 				{
					"maxclass" : "newobj",
					"text" : "r data",
					"fontsize" : 12.0,
					"numinlets" : 0,
					"patching_rect" : [ 90.0, 555.0, 41.0, 20.0 ],
					"id" : "obj-26",
					"numoutlets" : 1,
					"outlettype" : [ "" ],
					"fontname" : "Arial"
				}

			}
, 			{
				"box" : 				{
					"maxclass" : "newobj",
					"text" : "s data",
					"fontsize" : 12.0,
					"numinlets" : 1,
					"patching_rect" : [ 120.0, 405.0, 43.0, 20.0 ],
					"id" : "obj-23",
					"numoutlets" : 0,
					"fontname" : "Arial"
				}

			}
, 			{
				"box" : 				{
					"maxclass" : "newobj",
					"text" : "s lcd",
					"fontsize" : 12.0,
					"numinlets" : 1,
					"patching_rect" : [ 1380.0, 405.0, 35.0, 20.0 ],
					"id" : "obj-111",
					"numoutlets" : 0,
					"fontname" : "Arial"
				}

			}
, 			{
				"box" : 				{
					"maxclass" : "message",
					"text" : "clear, moveto 100 200, write ftont, bang",
					"linecount" : 2,
					"fontsize" : 11.595187,
					"numinlets" : 2,
					"patching_rect" : [ 1215.0, 345.0, 130.0, 31.0 ],
					"id" : "obj-110",
					"numoutlets" : 1,
					"outlettype" : [ "" ],
					"fontname" : "Arial"
				}

			}
, 			{
				"box" : 				{
					"maxclass" : "newobj",
					"text" : "if $i1 == 1 then bang",
					"fontsize" : 12.0,
					"numinlets" : 1,
					"patching_rect" : [ 1215.0, 315.0, 120.0, 20.0 ],
					"id" : "obj-108",
					"numoutlets" : 1,
					"outlettype" : [ "" ],
					"fontname" : "Arial"
				}

			}
, 			{
				"box" : 				{
					"maxclass" : "newobj",
					"text" : "loadbang",
					"fontsize" : 11.595187,
					"numinlets" : 1,
					"patching_rect" : [ 909.0, 233.0, 58.0, 20.0 ],
					"id" : "obj-50",
					"numoutlets" : 1,
					"outlettype" : [ "bang" ],
					"fontname" : "Arial"
				}

			}
, 			{
				"box" : 				{
					"maxclass" : "message",
					"text" : "border 1",
					"fontsize" : 11.595187,
					"numinlets" : 2,
					"patching_rect" : [ 909.0, 258.0, 54.0, 18.0 ],
					"id" : "obj-54",
					"numoutlets" : 1,
					"outlettype" : [ "" ],
					"fontname" : "Arial"
				}

			}
, 			{
				"box" : 				{
					"maxclass" : "newobj",
					"text" : "s alphamask",
					"fontsize" : 11.595187,
					"numinlets" : 1,
					"patching_rect" : [ 756.0, 286.0, 76.0, 20.0 ],
					"id" : "obj-60",
					"numoutlets" : 0,
					"fontname" : "Arial"
				}

			}
, 			{
				"box" : 				{
					"maxclass" : "jit.pwindow",
					"numinlets" : 1,
					"patching_rect" : [ 885.0, 285.0, 160.0, 120.0 ],
					"id" : "obj-61",
					"numoutlets" : 2,
					"border" : 1.0,
					"depthbuffer" : 0,
					"outlettype" : [ "", "" ]
				}

			}
, 			{
				"box" : 				{
					"maxclass" : "newobj",
					"text" : "loadbang",
					"fontsize" : 11.595187,
					"numinlets" : 1,
					"patching_rect" : [ 799.0, 173.0, 58.0, 20.0 ],
					"id" : "obj-63",
					"numoutlets" : 1,
					"outlettype" : [ "bang" ],
					"fontname" : "Arial"
				}

			}
, 			{
				"box" : 				{
					"maxclass" : "newobj",
					"text" : "jit.rgb2luma",
					"fontsize" : 11.595187,
					"numinlets" : 1,
					"patching_rect" : [ 756.0, 258.0, 70.0, 20.0 ],
					"id" : "obj-65",
					"numoutlets" : 2,
					"outlettype" : [ "jit_matrix", "" ],
					"fontname" : "Arial"
				}

			}
, 			{
				"box" : 				{
					"maxclass" : "newobj",
					"text" : "r lcd",
					"fontsize" : 11.595187,
					"numinlets" : 0,
					"patching_rect" : [ 756.0, 206.0, 32.0, 20.0 ],
					"id" : "obj-80",
					"numoutlets" : 1,
					"outlettype" : [ "" ],
					"fontname" : "Arial"
				}

			}
, 			{
				"box" : 				{
					"maxclass" : "message",
					"text" : "font times 18, textface bold, brgb 255 255 255, frgb 0 0 0, clear, bang",
					"fontsize" : 11.595187,
					"numinlets" : 2,
					"patching_rect" : [ 799.0, 194.0, 366.0, 18.0 ],
					"id" : "obj-83",
					"numoutlets" : 1,
					"outlettype" : [ "" ],
					"fontname" : "Arial"
				}

			}
, 			{
				"box" : 				{
					"maxclass" : "newobj",
					"text" : "jit.lcd 4 char 320 240",
					"color" : [ 1.0, 0.890196, 0.090196, 1.0 ],
					"fontsize" : 11.595187,
					"numinlets" : 1,
					"patching_rect" : [ 756.0, 233.0, 118.0, 20.0 ],
					"id" : "obj-84",
					"numoutlets" : 2,
					"outlettype" : [ "jit_matrix", "" ],
					"fontname" : "Arial"
				}

			}
, 			{
				"box" : 				{
					"maxclass" : "newobj",
					"text" : "jit.window camera_capture",
					"fontsize" : 12.0,
					"numinlets" : 1,
					"patching_rect" : [ 525.0, 330.0, 153.0, 20.0 ],
					"id" : "obj-48",
					"numoutlets" : 2,
					"outlettype" : [ "bang", "" ],
					"fontname" : "Arial"
				}

			}
, 			{
				"box" : 				{
					"maxclass" : "newobj",
					"text" : "r alphamask",
					"fontsize" : 11.595187,
					"numinlets" : 0,
					"patching_rect" : [ 435.0, 240.0, 74.0, 20.0 ],
					"id" : "obj-24",
					"numoutlets" : 1,
					"outlettype" : [ "" ],
					"fontname" : "Arial"
				}

			}
, 			{
				"box" : 				{
					"maxclass" : "newobj",
					"text" : "jit.op @op !- @val 255",
					"fontsize" : 11.595187,
					"numinlets" : 2,
					"patching_rect" : [ 615.0, 270.0, 126.0, 20.0 ],
					"id" : "obj-25",
					"numoutlets" : 2,
					"outlettype" : [ "jit_matrix", "" ],
					"fontname" : "Arial"
				}

			}
, 			{
				"box" : 				{
					"maxclass" : "newobj",
					"text" : "t b",
					"fontsize" : 11.595187,
					"numinlets" : 1,
					"patching_rect" : [ 525.0, 240.0, 23.0, 20.0 ],
					"id" : "obj-29",
					"numoutlets" : 1,
					"outlettype" : [ "bang" ],
					"fontname" : "Arial"
				}

			}
, 			{
				"box" : 				{
					"maxclass" : "newobj",
					"text" : "jit.pack 4",
					"fontsize" : 11.595187,
					"numinlets" : 4,
					"patching_rect" : [ 525.0, 270.0, 59.5, 20.0 ],
					"id" : "obj-31",
					"numoutlets" : 2,
					"outlettype" : [ "jit_matrix", "" ],
					"fontname" : "Arial"
				}

			}
, 			{
				"box" : 				{
					"maxclass" : "newobj",
					"text" : "jit.unpack 4",
					"fontsize" : 11.595187,
					"numinlets" : 1,
					"patching_rect" : [ 525.0, 210.0, 73.0, 20.0 ],
					"id" : "obj-40",
					"numoutlets" : 5,
					"outlettype" : [ "jit_matrix", "jit_matrix", "jit_matrix", "jit_matrix", "" ],
					"fontname" : "Arial"
				}

			}
, 			{
				"box" : 				{
					"maxclass" : "newobj",
					"text" : "jit.alphablend",
					"color" : [ 1.0, 0.890196, 0.090196, 1.0 ],
					"fontsize" : 11.595187,
					"numinlets" : 2,
					"patching_rect" : [ 525.0, 300.0, 79.0, 20.0 ],
					"id" : "obj-42",
					"numoutlets" : 2,
					"outlettype" : [ "jit_matrix", "" ],
					"fontname" : "Arial"
				}

			}
, 			{
				"box" : 				{
					"maxclass" : "newobj",
					"text" : "loadbang",
					"fontsize" : 12.0,
					"numinlets" : 1,
					"patching_rect" : [ 1440.0, 615.0, 60.0, 20.0 ],
					"id" : "obj-3",
					"numoutlets" : 1,
					"outlettype" : [ "bang" ],
					"fontname" : "Arial"
				}

			}
, 			{
				"box" : 				{
					"maxclass" : "newobj",
					"text" : "loadbang",
					"fontsize" : 12.0,
					"numinlets" : 1,
					"patching_rect" : [ 840.0, 540.0, 60.0, 20.0 ],
					"id" : "obj-2",
					"numoutlets" : 1,
					"outlettype" : [ "bang" ],
					"fontname" : "Arial"
				}

			}
, 			{
				"box" : 				{
					"maxclass" : "inlet",
					"numinlets" : 0,
					"patching_rect" : [ 120.0, 45.0, 25.0, 25.0 ],
					"id" : "obj-194",
					"numoutlets" : 1,
					"outlettype" : [ "" ],
					"comment" : ""
				}

			}
, 			{
				"box" : 				{
					"maxclass" : "number",
					"fontsize" : 12.0,
					"numinlets" : 1,
					"patching_rect" : [ 510.0, 675.0, 50.0, 20.0 ],
					"id" : "obj-178",
					"numoutlets" : 2,
					"outlettype" : [ "int", "bang" ],
					"fontname" : "Arial"
				}

			}
, 			{
				"box" : 				{
					"maxclass" : "number",
					"fontsize" : 12.0,
					"numinlets" : 1,
					"patching_rect" : [ 450.0, 675.0, 50.0, 20.0 ],
					"id" : "obj-177",
					"numoutlets" : 2,
					"outlettype" : [ "int", "bang" ],
					"fontname" : "Arial"
				}

			}
, 			{
				"box" : 				{
					"maxclass" : "number",
					"fontsize" : 12.0,
					"numinlets" : 1,
					"patching_rect" : [ 390.0, 675.0, 50.0, 20.0 ],
					"id" : "obj-176",
					"numoutlets" : 2,
					"outlettype" : [ "int", "bang" ],
					"fontname" : "Arial"
				}

			}
, 			{
				"box" : 				{
					"maxclass" : "number",
					"fontsize" : 12.0,
					"numinlets" : 1,
					"patching_rect" : [ 330.0, 675.0, 50.0, 20.0 ],
					"id" : "obj-175",
					"numoutlets" : 2,
					"outlettype" : [ "int", "bang" ],
					"fontname" : "Arial"
				}

			}
, 			{
				"box" : 				{
					"maxclass" : "newobj",
					"text" : "unpack 0 0 0 0",
					"fontsize" : 12.0,
					"numinlets" : 1,
					"patching_rect" : [ 330.0, 630.0, 200.0, 20.0 ],
					"id" : "obj-98",
					"numoutlets" : 4,
					"outlettype" : [ "int", "int", "int", "int" ],
					"fontname" : "Arial"
				}

			}
, 			{
				"box" : 				{
					"maxclass" : "newobj",
					"text" : "jit.dimmap @map 0 1 @invert 1 0",
					"fontsize" : 12.0,
					"numinlets" : 1,
					"patching_rect" : [ 1230.0, 570.0, 189.0, 20.0 ],
					"id" : "obj-95",
					"numoutlets" : 2,
					"outlettype" : [ "jit_matrix", "" ],
					"fontname" : "Arial"
				}

			}
, 			{
				"box" : 				{
					"maxclass" : "message",
					"text" : "read haarcascade_profileface.xml",
					"fontsize" : 12.0,
					"numinlets" : 2,
					"patching_rect" : [ 1440.0, 645.0, 191.0, 18.0 ],
					"id" : "obj-78",
					"numoutlets" : 1,
					"outlettype" : [ "" ],
					"fontname" : "Arial"
				}

			}
, 			{
				"box" : 				{
					"maxclass" : "jit.pwindow",
					"numinlets" : 1,
					"patching_rect" : [ 1230.0, 855.0, 260.0, 186.0 ],
					"id" : "obj-79",
					"numoutlets" : 2,
					"outlettype" : [ "", "" ]
				}

			}
, 			{
				"box" : 				{
					"maxclass" : "newobj",
					"text" : "jit.iter",
					"fontsize" : 12.0,
					"numinlets" : 1,
					"patching_rect" : [ 1470.0, 675.0, 46.0, 20.0 ],
					"id" : "obj-85",
					"numoutlets" : 3,
					"outlettype" : [ "", "", "" ],
					"fontname" : "Arial"
				}

			}
, 			{
				"box" : 				{
					"maxclass" : "newobj",
					"text" : "route nfaces",
					"fontsize" : 10.0,
					"numinlets" : 1,
					"patching_rect" : [ 1275.0, 690.0, 66.0, 18.0 ],
					"id" : "obj-87",
					"numoutlets" : 2,
					"outlettype" : [ "", "" ],
					"fontname" : "Arial"
				}

			}
, 			{
				"box" : 				{
					"maxclass" : "message",
					"text" : "getnfaces",
					"fontsize" : 10.0,
					"numinlets" : 2,
					"patching_rect" : [ 1335.0, 630.0, 58.0, 16.0 ],
					"id" : "obj-88",
					"numoutlets" : 1,
					"outlettype" : [ "" ],
					"fontname" : "Arial"
				}

			}
, 			{
				"box" : 				{
					"maxclass" : "newobj",
					"text" : "prepend frgb",
					"fontsize" : 10.0,
					"numinlets" : 1,
					"patching_rect" : [ 1335.0, 810.0, 73.0, 18.0 ],
					"id" : "obj-89",
					"numoutlets" : 1,
					"outlettype" : [ "" ],
					"fontname" : "Arial"
				}

			}
, 			{
				"box" : 				{
					"maxclass" : "swatch",
					"numinlets" : 3,
					"patching_rect" : [ 1335.0, 765.0, 128.0, 32.0 ],
					"id" : "obj-90",
					"numoutlets" : 2,
					"compatibility" : 1,
					"outlettype" : [ "", "float" ]
				}

			}
, 			{
				"box" : 				{
					"maxclass" : "jit.fpsgui",
					"fontsize" : 12.0,
					"numinlets" : 1,
					"patching_rect" : [ 1230.0, 1050.0, 80.0, 36.0 ],
					"id" : "obj-91",
					"numoutlets" : 2,
					"outlettype" : [ "", "" ],
					"fontname" : "Arial"
				}

			}
, 			{
				"box" : 				{
					"maxclass" : "newobj",
					"text" : "cv.jit.faces.draw",
					"fontsize" : 12.0,
					"numinlets" : 2,
					"patching_rect" : [ 1230.0, 825.0, 115.0, 20.0 ],
					"id" : "obj-92",
					"numoutlets" : 1,
					"outlettype" : [ "jit_matrix" ],
					"fontname" : "Arial"
				}

			}
, 			{
				"box" : 				{
					"maxclass" : "newobj",
					"text" : "cv.jit.faces",
					"fontsize" : 12.0,
					"numinlets" : 1,
					"patching_rect" : [ 1230.0, 660.0, 66.0, 20.0 ],
					"id" : "obj-93",
					"numoutlets" : 2,
					"outlettype" : [ "jit_matrix", "" ],
					"fontname" : "Arial"
				}

			}
, 			{
				"box" : 				{
					"maxclass" : "message",
					"text" : "read haarcascade_profileface.xml",
					"fontsize" : 12.0,
					"numinlets" : 2,
					"patching_rect" : [ 840.0, 585.0, 191.0, 18.0 ],
					"id" : "obj-77",
					"numoutlets" : 1,
					"outlettype" : [ "" ],
					"fontname" : "Arial"
				}

			}
, 			{
				"box" : 				{
					"maxclass" : "jit.pwindow",
					"numinlets" : 1,
					"patching_rect" : [ 690.0, 855.0, 260.0, 186.0 ],
					"id" : "obj-62",
					"numoutlets" : 2,
					"outlettype" : [ "", "" ]
				}

			}
, 			{
				"box" : 				{
					"maxclass" : "newobj",
					"text" : "jit.iter",
					"fontsize" : 12.0,
					"numinlets" : 1,
					"patching_rect" : [ 900.0, 645.0, 46.0, 20.0 ],
					"id" : "obj-66",
					"numoutlets" : 3,
					"outlettype" : [ "", "", "" ],
					"fontname" : "Arial"
				}

			}
, 			{
				"box" : 				{
					"maxclass" : "newobj",
					"text" : "route nfaces",
					"fontsize" : 10.0,
					"numinlets" : 1,
					"patching_rect" : [ 735.0, 630.0, 66.0, 18.0 ],
					"id" : "obj-68",
					"numoutlets" : 2,
					"outlettype" : [ "", "" ],
					"fontname" : "Arial"
				}

			}
, 			{
				"box" : 				{
					"maxclass" : "message",
					"text" : "getnfaces",
					"fontsize" : 10.0,
					"numinlets" : 2,
					"patching_rect" : [ 765.0, 570.0, 58.0, 16.0 ],
					"id" : "obj-69",
					"numoutlets" : 1,
					"outlettype" : [ "" ],
					"fontname" : "Arial"
				}

			}
, 			{
				"box" : 				{
					"maxclass" : "newobj",
					"text" : "prepend frgb",
					"fontsize" : 10.0,
					"numinlets" : 1,
					"patching_rect" : [ 705.0, 795.0, 73.0, 18.0 ],
					"id" : "obj-70",
					"numoutlets" : 1,
					"outlettype" : [ "" ],
					"fontname" : "Arial"
				}

			}
, 			{
				"box" : 				{
					"maxclass" : "swatch",
					"numinlets" : 3,
					"patching_rect" : [ 705.0, 750.0, 128.0, 32.0 ],
					"id" : "obj-71",
					"numoutlets" : 2,
					"compatibility" : 1,
					"outlettype" : [ "", "float" ]
				}

			}
, 			{
				"box" : 				{
					"maxclass" : "jit.fpsgui",
					"fontsize" : 12.0,
					"numinlets" : 1,
					"patching_rect" : [ 690.0, 1050.0, 80.0, 36.0 ],
					"id" : "obj-73",
					"numoutlets" : 2,
					"outlettype" : [ "", "" ],
					"fontname" : "Arial"
				}

			}
, 			{
				"box" : 				{
					"maxclass" : "newobj",
					"text" : "cv.jit.faces.draw",
					"fontsize" : 12.0,
					"numinlets" : 2,
					"patching_rect" : [ 690.0, 825.0, 95.0, 20.0 ],
					"id" : "obj-74",
					"numoutlets" : 1,
					"outlettype" : [ "jit_matrix" ],
					"fontname" : "Arial"
				}

			}
, 			{
				"box" : 				{
					"maxclass" : "newobj",
					"text" : "cv.jit.faces",
					"fontsize" : 12.0,
					"numinlets" : 1,
					"patching_rect" : [ 690.0, 600.0, 66.0, 20.0 ],
					"id" : "obj-75",
					"numoutlets" : 2,
					"outlettype" : [ "jit_matrix", "" ],
					"fontname" : "Arial"
				}

			}
, 			{
				"box" : 				{
					"maxclass" : "jit.pwindow",
					"numinlets" : 1,
					"patching_rect" : [ 90.0, 825.0, 260.0, 186.0 ],
					"id" : "obj-51",
					"numoutlets" : 2,
					"outlettype" : [ "", "" ]
				}

			}
, 			{
				"box" : 				{
					"maxclass" : "newobj",
					"text" : "jit.iter",
					"fontsize" : 12.0,
					"numinlets" : 1,
					"patching_rect" : [ 330.0, 600.0, 46.0, 20.0 ],
					"id" : "obj-49",
					"numoutlets" : 3,
					"outlettype" : [ "", "", "" ],
					"fontname" : "Arial"
				}

			}
, 			{
				"box" : 				{
					"maxclass" : "newobj",
					"text" : "route nfaces",
					"fontsize" : 10.0,
					"numinlets" : 1,
					"patching_rect" : [ 135.0, 615.0, 66.0, 18.0 ],
					"id" : "obj-81",
					"numoutlets" : 2,
					"outlettype" : [ "", "" ],
					"fontname" : "Arial"
				}

			}
, 			{
				"box" : 				{
					"maxclass" : "message",
					"text" : "getnfaces",
					"fontsize" : 10.0,
					"numinlets" : 2,
					"patching_rect" : [ 165.0, 555.0, 58.0, 16.0 ],
					"id" : "obj-72",
					"numoutlets" : 1,
					"outlettype" : [ "" ],
					"fontname" : "Arial"
				}

			}
, 			{
				"box" : 				{
					"maxclass" : "newobj",
					"text" : "prepend frgb",
					"fontsize" : 10.0,
					"numinlets" : 1,
					"patching_rect" : [ 120.0, 765.0, 73.0, 18.0 ],
					"id" : "obj-33",
					"numoutlets" : 1,
					"outlettype" : [ "" ],
					"fontname" : "Arial"
				}

			}
, 			{
				"box" : 				{
					"maxclass" : "swatch",
					"numinlets" : 3,
					"patching_rect" : [ 120.0, 728.0, 128.0, 32.0 ],
					"id" : "obj-44",
					"numoutlets" : 2,
					"compatibility" : 1,
					"outlettype" : [ "", "float" ]
				}

			}
, 			{
				"box" : 				{
					"maxclass" : "jit.fpsgui",
					"fontsize" : 12.0,
					"numinlets" : 1,
					"patching_rect" : [ 90.0, 1035.0, 80.0, 36.0 ],
					"id" : "obj-43",
					"numoutlets" : 2,
					"outlettype" : [ "", "" ],
					"fontname" : "Arial"
				}

			}
, 			{
				"box" : 				{
					"maxclass" : "newobj",
					"text" : "cv.jit.faces.draw",
					"fontsize" : 12.0,
					"numinlets" : 2,
					"patching_rect" : [ 90.0, 795.0, 95.0, 20.0 ],
					"id" : "obj-16",
					"numoutlets" : 1,
					"outlettype" : [ "jit_matrix" ],
					"fontname" : "Arial"
				}

			}
, 			{
				"box" : 				{
					"maxclass" : "newobj",
					"text" : "cv.jit.faces",
					"fontsize" : 12.0,
					"numinlets" : 1,
					"patching_rect" : [ 90.0, 585.0, 66.0, 20.0 ],
					"id" : "obj-15",
					"numoutlets" : 2,
					"outlettype" : [ "jit_matrix", "" ],
					"fontname" : "Arial"
				}

			}
, 			{
				"box" : 				{
					"maxclass" : "newobj",
					"text" : "cv.jit.resize @size 160 120",
					"fontsize" : 12.0,
					"numinlets" : 1,
					"patching_rect" : [ 120.0, 375.0, 153.0, 20.0 ],
					"id" : "obj-14",
					"numoutlets" : 2,
					"outlettype" : [ "jit_matrix", "" ],
					"fontname" : "Arial"
				}

			}
, 			{
				"box" : 				{
					"maxclass" : "newobj",
					"text" : "jit.rgb2luma",
					"fontsize" : 12.0,
					"numinlets" : 1,
					"patching_rect" : [ 120.0, 330.0, 73.0, 20.0 ],
					"id" : "obj-13",
					"numoutlets" : 2,
					"outlettype" : [ "jit_matrix", "" ],
					"fontname" : "Arial"
				}

			}
, 			{
				"box" : 				{
					"maxclass" : "message",
					"text" : "settings",
					"fontsize" : 12.0,
					"numinlets" : 2,
					"patching_rect" : [ 315.0, 225.0, 52.0, 18.0 ],
					"id" : "obj-12",
					"numoutlets" : 1,
					"outlettype" : [ "" ],
					"fontname" : "Arial"
				}

			}
, 			{
				"box" : 				{
					"maxclass" : "message",
					"text" : "close",
					"fontsize" : 12.0,
					"numinlets" : 2,
					"patching_rect" : [ 270.0, 225.0, 39.0, 18.0 ],
					"id" : "obj-11",
					"numoutlets" : 1,
					"outlettype" : [ "" ],
					"fontname" : "Arial"
				}

			}
, 			{
				"box" : 				{
					"maxclass" : "message",
					"text" : "open",
					"fontsize" : 12.0,
					"numinlets" : 2,
					"patching_rect" : [ 225.0, 225.0, 37.0, 18.0 ],
					"id" : "obj-10",
					"numoutlets" : 1,
					"outlettype" : [ "" ],
					"fontname" : "Arial"
				}

			}
, 			{
				"box" : 				{
					"maxclass" : "newobj",
					"text" : "qmetro 2",
					"fontsize" : 12.0,
					"numinlets" : 2,
					"patching_rect" : [ 120.0, 195.0, 58.0, 20.0 ],
					"id" : "obj-9",
					"numoutlets" : 1,
					"outlettype" : [ "bang" ],
					"fontname" : "Arial"
				}

			}
, 			{
				"box" : 				{
					"maxclass" : "toggle",
					"numinlets" : 1,
					"patching_rect" : [ 120.0, 90.0, 88.0, 88.0 ],
					"id" : "obj-8",
					"numoutlets" : 1,
					"outlettype" : [ "int" ]
				}

			}
, 			{
				"box" : 				{
					"maxclass" : "newobj",
					"text" : "cv.jit.grab 320 240",
					"fontsize" : 12.0,
					"numinlets" : 1,
					"patching_rect" : [ 120.0, 270.0, 108.0, 20.0 ],
					"id" : "obj-4",
					"numoutlets" : 2,
					"outlettype" : [ "jit_matrix", "" ],
					"fontname" : "Arial"
				}

			}
, 			{
				"box" : 				{
					"maxclass" : "panel",
					"numinlets" : 1,
					"patching_rect" : [ 60.0, 510.0, 518.0, 581.0 ],
					"id" : "obj-58",
					"numoutlets" : 0,
					"border" : 1,
					"rounded" : 0,
					"bgcolor" : [ 0.0, 0.94902, 1.0, 0.2 ]
				}

			}
, 			{
				"box" : 				{
					"maxclass" : "panel",
					"numinlets" : 1,
					"patching_rect" : [ 615.0, 510.0, 518.0, 581.0 ],
					"id" : "obj-59",
					"numoutlets" : 0,
					"border" : 1,
					"rounded" : 0,
					"bgcolor" : [ 0.0, 1.0, 0.54902, 0.2 ]
				}

			}
, 			{
				"box" : 				{
					"maxclass" : "panel",
					"numinlets" : 1,
					"patching_rect" : [ 1185.0, 510.0, 518.0, 581.0 ],
					"id" : "obj-64",
					"numoutlets" : 0,
					"border" : 1,
					"rounded" : 0,
					"bgcolor" : [ 1.0, 0.701961, 0.0, 0.2 ]
				}

			}
, 			{
				"box" : 				{
					"maxclass" : "panel",
					"numinlets" : 1,
					"patching_rect" : [ 1200.0, 165.0, 504.0, 273.0 ],
					"id" : "obj-124",
					"numoutlets" : 0,
					"border" : 1,
					"rounded" : 0,
					"bgcolor" : [ 0.8, 0.0, 1.0, 0.2 ]
				}

			}
, 			{
				"box" : 				{
					"maxclass" : "panel",
					"numinlets" : 1,
					"patching_rect" : [ 420.0, 105.0, 756.0, 330.0 ],
					"id" : "obj-129",
					"numoutlets" : 0,
					"border" : 1,
					"rounded" : 0,
					"bgcolor" : [ 1.0, 0.0, 0.65098, 0.2 ]
				}

			}
 ],
		"lines" : [ 			{
				"patchline" : 				{
					"source" : [ "obj-26", 0 ],
					"destination" : [ "obj-15", 0 ],
					"hidden" : 0,
					"midpoints" : [  ]
				}

			}
, 			{
				"patchline" : 				{
					"source" : [ "obj-14", 0 ],
					"destination" : [ "obj-23", 0 ],
					"hidden" : 0,
					"midpoints" : [  ]
				}

			}
, 			{
				"patchline" : 				{
					"source" : [ "obj-194", 0 ],
					"destination" : [ "obj-8", 0 ],
					"hidden" : 0,
					"midpoints" : [  ]
				}

			}
, 			{
				"patchline" : 				{
					"source" : [ "obj-98", 3 ],
					"destination" : [ "obj-178", 0 ],
					"hidden" : 0,
					"midpoints" : [  ]
				}

			}
, 			{
				"patchline" : 				{
					"source" : [ "obj-98", 2 ],
					"destination" : [ "obj-177", 0 ],
					"hidden" : 0,
					"midpoints" : [  ]
				}

			}
, 			{
				"patchline" : 				{
					"source" : [ "obj-98", 1 ],
					"destination" : [ "obj-176", 0 ],
					"hidden" : 0,
					"midpoints" : [  ]
				}

			}
, 			{
				"patchline" : 				{
					"source" : [ "obj-98", 0 ],
					"destination" : [ "obj-175", 0 ],
					"hidden" : 0,
					"midpoints" : [  ]
				}

			}
, 			{
				"patchline" : 				{
					"source" : [ "obj-49", 0 ],
					"destination" : [ "obj-98", 0 ],
					"hidden" : 0,
					"midpoints" : [  ]
				}

			}
, 			{
				"patchline" : 				{
					"source" : [ "obj-95", 0 ],
					"destination" : [ "obj-92", 1 ],
					"hidden" : 0,
					"midpoints" : [ 1239.5, 632.0, 1335.5, 632.0 ]
				}

			}
, 			{
				"patchline" : 				{
					"source" : [ "obj-95", 0 ],
					"destination" : [ "obj-93", 0 ],
					"hidden" : 0,
					"midpoints" : [  ]
				}

			}
, 			{
				"patchline" : 				{
					"source" : [ "obj-92", 0 ],
					"destination" : [ "obj-79", 0 ],
					"hidden" : 0,
					"midpoints" : [  ]
				}

			}
, 			{
				"patchline" : 				{
					"source" : [ "obj-79", 0 ],
					"destination" : [ "obj-91", 0 ],
					"hidden" : 0,
					"midpoints" : [  ]
				}

			}
, 			{
				"patchline" : 				{
					"source" : [ "obj-93", 0 ],
					"destination" : [ "obj-85", 0 ],
					"hidden" : 0,
					"midpoints" : [  ]
				}

			}
, 			{
				"patchline" : 				{
					"source" : [ "obj-93", 1 ],
					"destination" : [ "obj-87", 0 ],
					"hidden" : 0,
					"midpoints" : [  ]
				}

			}
, 			{
				"patchline" : 				{
					"source" : [ "obj-88", 0 ],
					"destination" : [ "obj-93", 0 ],
					"hidden" : 0,
					"midpoints" : [  ]
				}

			}
, 			{
				"patchline" : 				{
					"source" : [ "obj-89", 0 ],
					"destination" : [ "obj-92", 0 ],
					"hidden" : 0,
					"midpoints" : [  ]
				}

			}
, 			{
				"patchline" : 				{
					"source" : [ "obj-90", 0 ],
					"destination" : [ "obj-89", 0 ],
					"hidden" : 0,
					"midpoints" : [  ]
				}

			}
, 			{
				"patchline" : 				{
					"source" : [ "obj-93", 0 ],
					"destination" : [ "obj-92", 0 ],
					"hidden" : 0,
					"midpoints" : [  ]
				}

			}
, 			{
				"patchline" : 				{
					"source" : [ "obj-78", 0 ],
					"destination" : [ "obj-93", 0 ],
					"hidden" : 0,
					"midpoints" : [  ]
				}

			}
, 			{
				"patchline" : 				{
					"source" : [ "obj-77", 0 ],
					"destination" : [ "obj-75", 0 ],
					"hidden" : 0,
					"midpoints" : [  ]
				}

			}
, 			{
				"patchline" : 				{
					"source" : [ "obj-75", 0 ],
					"destination" : [ "obj-74", 0 ],
					"hidden" : 0,
					"midpoints" : [  ]
				}

			}
, 			{
				"patchline" : 				{
					"source" : [ "obj-71", 0 ],
					"destination" : [ "obj-70", 0 ],
					"hidden" : 0,
					"midpoints" : [  ]
				}

			}
, 			{
				"patchline" : 				{
					"source" : [ "obj-70", 0 ],
					"destination" : [ "obj-74", 0 ],
					"hidden" : 0,
					"midpoints" : [  ]
				}

			}
, 			{
				"patchline" : 				{
					"source" : [ "obj-69", 0 ],
					"destination" : [ "obj-75", 0 ],
					"hidden" : 0,
					"midpoints" : [  ]
				}

			}
, 			{
				"patchline" : 				{
					"source" : [ "obj-75", 1 ],
					"destination" : [ "obj-68", 0 ],
					"hidden" : 0,
					"midpoints" : [  ]
				}

			}
, 			{
				"patchline" : 				{
					"source" : [ "obj-75", 0 ],
					"destination" : [ "obj-66", 0 ],
					"hidden" : 0,
					"midpoints" : [  ]
				}

			}
, 			{
				"patchline" : 				{
					"source" : [ "obj-74", 0 ],
					"destination" : [ "obj-62", 0 ],
					"hidden" : 0,
					"midpoints" : [  ]
				}

			}
, 			{
				"patchline" : 				{
					"source" : [ "obj-62", 0 ],
					"destination" : [ "obj-73", 0 ],
					"hidden" : 0,
					"midpoints" : [  ]
				}

			}
, 			{
				"patchline" : 				{
					"source" : [ "obj-9", 0 ],
					"destination" : [ "obj-4", 0 ],
					"hidden" : 0,
					"midpoints" : [  ]
				}

			}
, 			{
				"patchline" : 				{
					"source" : [ "obj-4", 0 ],
					"destination" : [ "obj-13", 0 ],
					"hidden" : 0,
					"midpoints" : [  ]
				}

			}
, 			{
				"patchline" : 				{
					"source" : [ "obj-10", 0 ],
					"destination" : [ "obj-4", 0 ],
					"hidden" : 0,
					"midpoints" : [  ]
				}

			}
, 			{
				"patchline" : 				{
					"source" : [ "obj-11", 0 ],
					"destination" : [ "obj-4", 0 ],
					"hidden" : 0,
					"midpoints" : [  ]
				}

			}
, 			{
				"patchline" : 				{
					"source" : [ "obj-12", 0 ],
					"destination" : [ "obj-4", 0 ],
					"hidden" : 0,
					"midpoints" : [  ]
				}

			}
, 			{
				"patchline" : 				{
					"source" : [ "obj-13", 0 ],
					"destination" : [ "obj-14", 0 ],
					"hidden" : 0,
					"midpoints" : [  ]
				}

			}
, 			{
				"patchline" : 				{
					"source" : [ "obj-51", 0 ],
					"destination" : [ "obj-43", 0 ],
					"hidden" : 0,
					"midpoints" : [  ]
				}

			}
, 			{
				"patchline" : 				{
					"source" : [ "obj-16", 0 ],
					"destination" : [ "obj-51", 0 ],
					"hidden" : 0,
					"midpoints" : [  ]
				}

			}
, 			{
				"patchline" : 				{
					"source" : [ "obj-15", 0 ],
					"destination" : [ "obj-49", 0 ],
					"hidden" : 0,
					"midpoints" : [  ]
				}

			}
, 			{
				"patchline" : 				{
					"source" : [ "obj-15", 1 ],
					"destination" : [ "obj-81", 0 ],
					"hidden" : 0,
					"midpoints" : [  ]
				}

			}
, 			{
				"patchline" : 				{
					"source" : [ "obj-72", 0 ],
					"destination" : [ "obj-15", 0 ],
					"hidden" : 0,
					"midpoints" : [  ]
				}

			}
, 			{
				"patchline" : 				{
					"source" : [ "obj-33", 0 ],
					"destination" : [ "obj-16", 0 ],
					"hidden" : 0,
					"midpoints" : [  ]
				}

			}
, 			{
				"patchline" : 				{
					"source" : [ "obj-44", 0 ],
					"destination" : [ "obj-33", 0 ],
					"hidden" : 0,
					"midpoints" : [  ]
				}

			}
, 			{
				"patchline" : 				{
					"source" : [ "obj-15", 0 ],
					"destination" : [ "obj-16", 0 ],
					"hidden" : 0,
					"midpoints" : [  ]
				}

			}
, 			{
				"patchline" : 				{
					"source" : [ "obj-8", 0 ],
					"destination" : [ "obj-9", 0 ],
					"hidden" : 0,
					"midpoints" : [  ]
				}

			}
, 			{
				"patchline" : 				{
					"source" : [ "obj-8", 0 ],
					"destination" : [ "obj-10", 0 ],
					"hidden" : 0,
					"midpoints" : [  ]
				}

			}
, 			{
				"patchline" : 				{
					"source" : [ "obj-2", 0 ],
					"destination" : [ "obj-77", 0 ],
					"hidden" : 0,
					"midpoints" : [  ]
				}

			}
, 			{
				"patchline" : 				{
					"source" : [ "obj-3", 0 ],
					"destination" : [ "obj-78", 0 ],
					"hidden" : 0,
					"midpoints" : [  ]
				}

			}
, 			{
				"patchline" : 				{
					"source" : [ "obj-40", 0 ],
					"destination" : [ "obj-29", 0 ],
					"hidden" : 0,
					"midpoints" : [  ]
				}

			}
, 			{
				"patchline" : 				{
					"source" : [ "obj-24", 0 ],
					"destination" : [ "obj-31", 0 ],
					"hidden" : 0,
					"midpoints" : [ 444.5, 265.0, 534.5, 265.0 ]
				}

			}
, 			{
				"patchline" : 				{
					"source" : [ "obj-29", 0 ],
					"destination" : [ "obj-31", 0 ],
					"hidden" : 0,
					"midpoints" : [  ]
				}

			}
, 			{
				"patchline" : 				{
					"source" : [ "obj-31", 0 ],
					"destination" : [ "obj-42", 0 ],
					"hidden" : 0,
					"midpoints" : [  ]
				}

			}
, 			{
				"patchline" : 				{
					"source" : [ "obj-40", 1 ],
					"destination" : [ "obj-31", 1 ],
					"hidden" : 0,
					"midpoints" : [  ]
				}

			}
, 			{
				"patchline" : 				{
					"source" : [ "obj-40", 2 ],
					"destination" : [ "obj-31", 2 ],
					"hidden" : 0,
					"midpoints" : [  ]
				}

			}
, 			{
				"patchline" : 				{
					"source" : [ "obj-40", 3 ],
					"destination" : [ "obj-31", 3 ],
					"hidden" : 0,
					"midpoints" : [  ]
				}

			}
, 			{
				"patchline" : 				{
					"source" : [ "obj-25", 0 ],
					"destination" : [ "obj-42", 1 ],
					"hidden" : 0,
					"midpoints" : [  ]
				}

			}
, 			{
				"patchline" : 				{
					"source" : [ "obj-42", 0 ],
					"destination" : [ "obj-48", 0 ],
					"hidden" : 0,
					"midpoints" : [  ]
				}

			}
, 			{
				"patchline" : 				{
					"source" : [ "obj-80", 0 ],
					"destination" : [ "obj-84", 0 ],
					"hidden" : 0,
					"midpoints" : [  ]
				}

			}
, 			{
				"patchline" : 				{
					"source" : [ "obj-83", 0 ],
					"destination" : [ "obj-84", 0 ],
					"hidden" : 0,
					"midpoints" : [ 808.5, 228.0, 765.5, 228.0 ]
				}

			}
, 			{
				"patchline" : 				{
					"source" : [ "obj-84", 0 ],
					"destination" : [ "obj-65", 0 ],
					"hidden" : 0,
					"midpoints" : [  ]
				}

			}
, 			{
				"patchline" : 				{
					"source" : [ "obj-65", 0 ],
					"destination" : [ "obj-60", 0 ],
					"hidden" : 0,
					"midpoints" : [  ]
				}

			}
, 			{
				"patchline" : 				{
					"source" : [ "obj-63", 0 ],
					"destination" : [ "obj-83", 0 ],
					"hidden" : 0,
					"midpoints" : [  ]
				}

			}
, 			{
				"patchline" : 				{
					"source" : [ "obj-54", 0 ],
					"destination" : [ "obj-61", 0 ],
					"hidden" : 0,
					"midpoints" : [ 918.5, 280.0, 894.5, 280.0 ]
				}

			}
, 			{
				"patchline" : 				{
					"source" : [ "obj-65", 0 ],
					"destination" : [ "obj-61", 0 ],
					"hidden" : 0,
					"midpoints" : [ 765.5, 280.0, 894.5, 280.0 ]
				}

			}
, 			{
				"patchline" : 				{
					"source" : [ "obj-50", 0 ],
					"destination" : [ "obj-54", 0 ],
					"hidden" : 0,
					"midpoints" : [  ]
				}

			}
, 			{
				"patchline" : 				{
					"source" : [ "obj-110", 0 ],
					"destination" : [ "obj-111", 0 ],
					"hidden" : 0,
					"midpoints" : [  ]
				}

			}
, 			{
				"patchline" : 				{
					"source" : [ "obj-1", 0 ],
					"destination" : [ "obj-16", 1 ],
					"hidden" : 0,
					"midpoints" : [  ]
				}

			}
, 			{
				"patchline" : 				{
					"source" : [ "obj-5", 0 ],
					"destination" : [ "obj-95", 0 ],
					"hidden" : 0,
					"midpoints" : [  ]
				}

			}
, 			{
				"patchline" : 				{
					"source" : [ "obj-6", 0 ],
					"destination" : [ "obj-75", 0 ],
					"hidden" : 0,
					"midpoints" : [  ]
				}

			}
, 			{
				"patchline" : 				{
					"source" : [ "obj-7", 0 ],
					"destination" : [ "obj-74", 1 ],
					"hidden" : 0,
					"midpoints" : [  ]
				}

			}
, 			{
				"patchline" : 				{
					"source" : [ "obj-9", 0 ],
					"destination" : [ "obj-19", 0 ],
					"hidden" : 0,
					"midpoints" : [  ]
				}

			}
, 			{
				"patchline" : 				{
					"source" : [ "obj-20", 0 ],
					"destination" : [ "obj-72", 0 ],
					"hidden" : 0,
					"midpoints" : [  ]
				}

			}
, 			{
				"patchline" : 				{
					"source" : [ "obj-81", 0 ],
					"destination" : [ "obj-28", 0 ],
					"hidden" : 0,
					"midpoints" : [  ]
				}

			}
, 			{
				"patchline" : 				{
					"source" : [ "obj-4", 0 ],
					"destination" : [ "obj-30", 0 ],
					"hidden" : 0,
					"midpoints" : [  ]
				}

			}
, 			{
				"patchline" : 				{
					"source" : [ "obj-32", 0 ],
					"destination" : [ "obj-40", 0 ],
					"hidden" : 0,
					"midpoints" : [  ]
				}

			}
, 			{
				"patchline" : 				{
					"source" : [ "obj-34", 0 ],
					"destination" : [ "obj-25", 0 ],
					"hidden" : 0,
					"midpoints" : [  ]
				}

			}
, 			{
				"patchline" : 				{
					"source" : [ "obj-68", 0 ],
					"destination" : [ "obj-35", 0 ],
					"hidden" : 0,
					"midpoints" : [  ]
				}

			}
, 			{
				"patchline" : 				{
					"source" : [ "obj-36", 0 ],
					"destination" : [ "obj-69", 0 ],
					"hidden" : 0,
					"midpoints" : [  ]
				}

			}
, 			{
				"patchline" : 				{
					"source" : [ "obj-45", 0 ],
					"destination" : [ "obj-41", 0 ],
					"hidden" : 0,
					"midpoints" : [  ]
				}

			}
, 			{
				"patchline" : 				{
					"source" : [ "obj-45", 1 ],
					"destination" : [ "obj-39", 0 ],
					"hidden" : 0,
					"midpoints" : [  ]
				}

			}
, 			{
				"patchline" : 				{
					"source" : [ "obj-45", 2 ],
					"destination" : [ "obj-38", 0 ],
					"hidden" : 0,
					"midpoints" : [  ]
				}

			}
, 			{
				"patchline" : 				{
					"source" : [ "obj-45", 3 ],
					"destination" : [ "obj-37", 0 ],
					"hidden" : 0,
					"midpoints" : [  ]
				}

			}
, 			{
				"patchline" : 				{
					"source" : [ "obj-66", 0 ],
					"destination" : [ "obj-45", 0 ],
					"hidden" : 0,
					"midpoints" : [  ]
				}

			}
, 			{
				"patchline" : 				{
					"source" : [ "obj-55", 3 ],
					"destination" : [ "obj-46", 0 ],
					"hidden" : 0,
					"midpoints" : [  ]
				}

			}
, 			{
				"patchline" : 				{
					"source" : [ "obj-55", 2 ],
					"destination" : [ "obj-47", 0 ],
					"hidden" : 0,
					"midpoints" : [  ]
				}

			}
, 			{
				"patchline" : 				{
					"source" : [ "obj-55", 1 ],
					"destination" : [ "obj-52", 0 ],
					"hidden" : 0,
					"midpoints" : [  ]
				}

			}
, 			{
				"patchline" : 				{
					"source" : [ "obj-55", 0 ],
					"destination" : [ "obj-53", 0 ],
					"hidden" : 0,
					"midpoints" : [  ]
				}

			}
, 			{
				"patchline" : 				{
					"source" : [ "obj-85", 0 ],
					"destination" : [ "obj-55", 0 ],
					"hidden" : 0,
					"midpoints" : [  ]
				}

			}
, 			{
				"patchline" : 				{
					"source" : [ "obj-87", 0 ],
					"destination" : [ "obj-56", 0 ],
					"hidden" : 0,
					"midpoints" : [  ]
				}

			}
, 			{
				"patchline" : 				{
					"source" : [ "obj-57", 0 ],
					"destination" : [ "obj-88", 0 ],
					"hidden" : 0,
					"midpoints" : [  ]
				}

			}
, 			{
				"patchline" : 				{
					"source" : [ "obj-28", 0 ],
					"destination" : [ "obj-94", 0 ],
					"hidden" : 0,
					"midpoints" : [  ]
				}

			}
, 			{
				"patchline" : 				{
					"source" : [ "obj-94", 0 ],
					"destination" : [ "obj-96", 0 ],
					"hidden" : 0,
					"midpoints" : [  ]
				}

			}
, 			{
				"patchline" : 				{
					"source" : [ "obj-35", 0 ],
					"destination" : [ "obj-102", 0 ],
					"hidden" : 0,
					"midpoints" : [  ]
				}

			}
, 			{
				"patchline" : 				{
					"source" : [ "obj-102", 0 ],
					"destination" : [ "obj-101", 0 ],
					"hidden" : 0,
					"midpoints" : [  ]
				}

			}
, 			{
				"patchline" : 				{
					"source" : [ "obj-104", 0 ],
					"destination" : [ "obj-103", 0 ],
					"hidden" : 0,
					"midpoints" : [  ]
				}

			}
, 			{
				"patchline" : 				{
					"source" : [ "obj-56", 0 ],
					"destination" : [ "obj-104", 0 ],
					"hidden" : 0,
					"midpoints" : [  ]
				}

			}
, 			{
				"patchline" : 				{
					"source" : [ "obj-105", 0 ],
					"destination" : [ "obj-116", 0 ],
					"hidden" : 0,
					"midpoints" : [  ]
				}

			}
, 			{
				"patchline" : 				{
					"source" : [ "obj-106", 0 ],
					"destination" : [ "obj-117", 0 ],
					"hidden" : 0,
					"midpoints" : [  ]
				}

			}
, 			{
				"patchline" : 				{
					"source" : [ "obj-107", 0 ],
					"destination" : [ "obj-118", 0 ],
					"hidden" : 0,
					"midpoints" : [  ]
				}

			}
, 			{
				"patchline" : 				{
					"source" : [ "obj-105", 0 ],
					"destination" : [ "obj-108", 0 ],
					"hidden" : 0,
					"midpoints" : [  ]
				}

			}
, 			{
				"patchline" : 				{
					"source" : [ "obj-108", 0 ],
					"destination" : [ "obj-110", 0 ],
					"hidden" : 0,
					"midpoints" : [  ]
				}

			}
, 			{
				"patchline" : 				{
					"source" : [ "obj-106", 0 ],
					"destination" : [ "obj-120", 0 ],
					"hidden" : 0,
					"midpoints" : [  ]
				}

			}
, 			{
				"patchline" : 				{
					"source" : [ "obj-107", 0 ],
					"destination" : [ "obj-121", 0 ],
					"hidden" : 0,
					"midpoints" : [  ]
				}

			}
, 			{
				"patchline" : 				{
					"source" : [ "obj-120", 0 ],
					"destination" : [ "obj-122", 0 ],
					"hidden" : 0,
					"midpoints" : [  ]
				}

			}
, 			{
				"patchline" : 				{
					"source" : [ "obj-121", 0 ],
					"destination" : [ "obj-123", 0 ],
					"hidden" : 0,
					"midpoints" : [  ]
				}

			}
, 			{
				"patchline" : 				{
					"source" : [ "obj-122", 0 ],
					"destination" : [ "obj-111", 0 ],
					"hidden" : 0,
					"midpoints" : [  ]
				}

			}
, 			{
				"patchline" : 				{
					"source" : [ "obj-123", 0 ],
					"destination" : [ "obj-111", 0 ],
					"hidden" : 0,
					"midpoints" : [  ]
				}

			}
, 			{
				"patchline" : 				{
					"source" : [ "obj-116", 0 ],
					"destination" : [ "obj-126", 0 ],
					"hidden" : 0,
					"midpoints" : [  ]
				}

			}
, 			{
				"patchline" : 				{
					"source" : [ "obj-118", 0 ],
					"destination" : [ "obj-128", 0 ],
					"hidden" : 0,
					"midpoints" : [  ]
				}

			}
, 			{
				"patchline" : 				{
					"source" : [ "obj-117", 0 ],
					"destination" : [ "obj-127", 0 ],
					"hidden" : 0,
					"midpoints" : [  ]
				}

			}
 ]
	}

}
